# xmcd
#
# Track frame offsets:
#	150
#	17703
#	36200
#	51223
#	62539
#	75248
#	89516
#	101184
#	115256
#	133532
#	149959
#	165078
#
# Disc length: 2371
#
# Revision: 1
# Processed by: cddbd v1.5.1PL0 Copyright (c) Steve Scherf et al.
# Submitted via: CDex 1.51
# Normalized: r0:TSWAP
#
DISCID=9c09410c
DTITLE=Various Artist - The Last Time I Saw Paris
DYEAR=2002
DGENRE=Jazz
TTITLE0=Nat King Cole with George Shearing - 01-Azure-Te
TTITLE1=Karrin Allyson - 02-Sous Le Ciel De Paris
TTITLE2=Lena Horne - 03-I Love Paris
TTITLE3=Ella Fitzgerald - 04-C'est Magnifique
TTITLE4=Pink Martini - 05-Sympathique
TTITLE5=Dorris Day - 06-April in Paris
TTITLE6=Yves Montand with Bob Castella and Orchestra - 07-Le Jazz Et La Java
TTITLE7=Les Nubians - 08-Autour De Minuit
TTITLE8=Etienne Daho - 09-La Nage Indienne
TTITLE9=Henri Salvador Featuring "Toots" Thielemans - 10-Un Tour De Manege
TTITLE10=Madeline Peyroux - 11-La Vie En Rose
TTITLE11=Dean Martin - 12-The Last Time I Saw Paris
EXTD=YEAR: 2002
EXTT0=
EXTT1=
EXTT2=
EXTT3=
EXTT4=
EXTT5=
EXTT6=
EXTT7=
EXTT8=
EXTT9=
EXTT10=
EXTT11=
PLAYORDER=
